<?xml version="1.0" encoding="utf-8"?>
<!-- Generator: Adobe Illustrator 23.0.1, SVG Export Plug-In . SVG Version: 6.00 Build 0)  -->
<!DOCTYPE svg PUBLIC "-//W3C//DTD SVG 1.1//EN" "http://www.w3.org/Graphics/SVG/1.1/DTD/svg11.dtd" [
	<!ENTITY ns_extend "http://ns.adobe.com/Extensibility/1.0/">
	<!ENTITY ns_ai "http://ns.adobe.com/AdobeIllustrator/10.0/">
	<!ENTITY ns_graphs "http://ns.adobe.com/Graphs/1.0/">
	<!ENTITY ns_vars "http://ns.adobe.com/Variables/1.0/">
	<!ENTITY ns_imrep "http://ns.adobe.com/ImageReplacement/1.0/">
	<!ENTITY ns_sfw "http://ns.adobe.com/SaveForWeb/1.0/">
	<!ENTITY ns_custom "http://ns.adobe.com/GenericCustomNamespace/1.0/">
	<!ENTITY ns_adobe_xpath "http://ns.adobe.com/XPath/1.0/">
]>
<svg version="1.1" id="Livello_1" xmlns:x="&ns_extend;" xmlns:i="&ns_ai;" xmlns:graph="&ns_graphs;"
	 xmlns="http://www.w3.org/2000/svg" xmlns:xlink="http://www.w3.org/1999/xlink" x="0px" y="0px" viewBox="0 0 1060.4 250"
	 style="enable-background:new 0 0 1060.4 250;" xml:space="preserve">
<style type="text/css">
	.st0{fill:#FFFFFF;}
	.st1{fill:#9D9D9C;}
	.st2{fill:#B2B2B2;}
	.st3{fill:#AB0000;}
	.st4{fill:#CB0002;}
	.st5{fill:#3C3A38;}
</style>
<metadata>
	<sfw  xmlns="&ns_sfw;">
		<slices></slices>
		<sliceSourceBounds  bottomLeftOrigin="true" height="250" width="1060.4" x="-312.1" y="217.3"></sliceSourceBounds>
	</sfw>
</metadata>
<g>
	<g>
		<path class="st0" d="M16.7,0C7.5,0,0,7.5,0,16.7v216.6c0,9.2,7.5,16.7,16.7,16.7h401.1V0H16.7"/>
		<path class="st1" d="M16.7,250h403.8v-5.2H16.7c-6.3,0-11.5-5.1-11.5-11.5V16.7c0-6.3,5.1-11.4,11.5-11.4h403.8V0H16.7
			C7.5,0,0,7.5,0,16.7v216.7C0,242.5,7.5,250,16.7,250"/>
	</g>
	<g>
		<path class="st2" d="M420.5,0H16.7C7.5,0,0,7.5,0,16.7v154c0-5.8,1.9-11,5.2-15.2V16.7c0-6.3,5.1-11.5,11.4-11.5h403.8V0"/>
	</g>
	<g>
		<path class="st3" d="M1043.7,0H416.1v250h627.6c9.2,0,16.7-7.5,16.7-16.6V16.7C1060.4,7.5,1052.8,0,1043.7,0"/>
		<path d="M281.3,222.4c2.7,1.4,8.2,3,15.1,3.2c11.8,0.2,18.3-4.3,23.1-14.9l63.7-142.1c-2.6-1.4-8.4-3-13.2-3.1
			c-8.2-0.2-19.2,1.5-26.2,18.3l-20.6,48.7l-40.5-65.9c-2.6-0.8-9-1.9-13.6-1.9c-14.3,0-22.2,5.3-30.5,14.3l-39.3,43l31.6,49.8
			c5.8,9.1,13.5,13.7,26.1,13.7c8.2,0,15-1.9,18.2-3.3L237,124.6L264,96l44.3,69.5L281.3,222.4 M197.7,168.6
			c0,10.5-4.1,16.5-24.6,16.5l-7.3-0.5v-139c0-10.5,3.6-21.6,24.2-21.6l7.6,0.8V168.6 M155.5,147.7c0,19.5-12.8,33.8-38.7,36.6
			c-18.8,2-46-0.4-58.9-1.9l-0.9-6.8c0-17.1,9.2-21,17.9-21c9,0,23.2,1.5,33.7,1.5c11.6,0,15.1-3.9,15.1-7.7c0-4.9-4.7-6.9-13.7-8.7
			l-24.6-4.7c-20.5-3.9-31.4-18.1-31.4-33.1c0-18.2,12.9-33.6,38.4-36.4c19.2-2.1,42.6,0.2,55.5,1.9l0.7,6.6c0,17-9,20.7-17.6,20.7
			c-6.6,0-17-1.2-28.8-1.2c-12,0-17,3.3-17,7.4c0,4.2,4.8,6,12.3,7.3l23.5,4.4C145.2,117.1,155.5,130.8,155.5,147.7"/>
		<path class="st4" d="M1043.7,0H416.1v129.7l644.3-26.2V16.8C1060.4,7.4,1052.9,0,1043.7,0"/>
		<path class="st0" d="M910,177.8c-1.2-9.7,1.9-14.8,7.1-14.8c5.4,0,19,6.3,38.2,6.3c20.4,0,28.2-7.5,28.2-17.3
			c0-6.6-2.9-12.2-21.4-17.3l-20.9-5.8c-22.4-6.1-31.4-17.3-31.4-31.4c0-17,13.6-32.8,44.8-32.8c14.1,0,31.6,3.4,42.1,7.5
			c1,9.5-1.9,14.6-6.8,14.6c-4.9,0-17.8-5.8-35-5.8c-19,0-26,6.8-26,15.8c0,5.8,2.7,11.2,19.7,16.1l21.2,5.8
			c23.4,6.8,33.1,17.8,33.1,32.8c0,18-14.3,34.1-47.9,34.1C939.6,185.6,920.9,182.2,910,177.8"/>
		<path class="st0" d="M894.4,69.1l-31.1,106.7c-1.9,6.6-6.8,8.3-13.6,8.3c-3.9,0-7.8-0.7-11.2-1.7l-29.9-94.9l-28.2,88.3
			c-2.2,6.8-7.3,8.3-13.6,8.3c-3.9,0-8-0.7-11.4-1.7L722.3,69.1c2.7-1.5,7.5-2.9,11.9-2.9c5.1,0,8,1.7,9.5,6.8l23.8,89.5h0.2
			l29.4-93.4c3.2-1.7,7.5-2.9,11.9-2.9c7.3,0,11.2,1.9,13.4,8.8l27.2,87.5h0.3L873,73c1.5-5.1,4.1-6.8,9.5-6.8
			C886.9,66.2,891.8,67.6,894.4,69.1"/>
		<path class="st0" d="M710.2,132.8h-90.5c2.9,22.6,18.7,35.5,42.1,35.5c10,0,17.8-2.2,25.1-4.6c4.9-1.7,7.5-2.7,9.5-2.7
			c4.9,0,8.5,4.6,7.3,15.1c-10.2,4.6-26,9.5-42.5,9.5c-36.2,0-61.1-24.6-61.1-60.8c0-34.8,26-60.1,57.9-60.1
			c35.8,0,53.3,28.4,53.3,56.2C711.2,124.5,710.9,128.4,710.2,132.8 M619.8,117h72.7c-0.7-19.9-13.6-35.8-34.5-35.8
			C639.5,81.2,622.9,93.6,619.8,117"/>
		<path class="st0" d="M578,114.3v62.5c0,4.6-2.4,7.3-10,7.3c-3.2,0-6.8-0.5-8.8-1v-66.4c0-23.8-11.9-35.3-29.2-35.3
			c-13.9,0-28.7,9.7-34.8,20.9v74.4c0,4.6-2.4,7.3-10,7.3c-3.4,0-7.1-0.5-8.8-1V67.4c1.7-0.5,5.4-1.2,8.8-1.2c7.5,0,10,2.9,10,7.3
			v10c8.5-10.2,21.4-18.7,38.9-18.7C558.1,64.7,578,80,578,114.3"/>
	</g>
	<g>
		<path class="st0" d="M110.1,139.9c3.1,0.6,5.6,1.2,7.7,2h0.1C115.8,141.1,113.2,140.5,110.1,139.9 M129,114.6c0.1,0,0.1,0,0.2,0.1
			C129.2,114.6,129.1,114.6,129,114.6 M128.6,114.4c0.1,0,0.2,0.1,0.2,0.1C128.7,114.5,128.6,114.5,128.6,114.4 M128,114.3
			c0.1,0,0.2,0.1,0.3,0.1C128.3,114.4,128.1,114.3,128,114.3 M127.5,114.1c0.1,0,0.3,0.1,0.4,0.1
			C127.8,114.2,127.6,114.2,127.5,114.1 M126.4,113.9c0.3,0.1,0.7,0.2,1,0.2C127.1,114,126.8,113.9,126.4,113.9 M125.9,113.7
			c0.2,0.1,0.3,0.1,0.4,0.1C126.2,113.8,126.1,113.8,125.9,113.7 M125.4,113.6c0.2,0,0.3,0.1,0.4,0.1
			C125.7,113.6,125.6,113.6,125.4,113.6 M123.2,113.1c0.7,0.2,1.4,0.3,2.1,0.5C124.7,113.4,124,113.2,123.2,113.1 M122.7,113
			c0.2,0,0.3,0.1,0.5,0.1C123,113,122.9,113,122.7,113 M122.2,112.9c0.1,0,0.3,0.1,0.4,0.1C122.5,112.9,122.3,112.9,122.2,112.9
			 M121.7,112.7c0.1,0,0.3,0.1,0.4,0.1C121.9,112.8,121.8,112.8,121.7,112.7 M101.7,93.6c-11.6,0.1-16.4,3.4-16.4,7.4
			c0,4.3,4.8,6,12.3,7.3l23.5,4.4c0.2,0,0.3,0.1,0.5,0.1c-0.2-0.1-0.4-0.1-0.5-0.1l-23.5-4.4c-7.5-1.3-12.2-3.1-12.2-7.3
			C85.3,96.9,90.1,93.7,101.7,93.6 M147.4,67.5c0.2,0,0.3,0,0.5,0.1l0.7,6.6l-0.7-6.6C147.7,67.5,147.6,67.5,147.4,67.5 M92.4,65.7
			L92.4,65.7C67,68.5,54.1,83.8,54.1,102v0C54.1,83.8,67,68.5,92.4,65.7 M109.3,64.9c-5.2,0-10.4,0.2-15.3,0.7
			C98.9,65.1,104.1,64.9,109.3,64.9 M109.4,64.9L109.4,64.9h0.3H109.4"/>
		<path class="st5" d="M109.4,64.9L109.4,64.9c-5.3,0-10.5,0.2-15.4,0.7c-0.5,0.1-1,0.1-1.5,0.2C67,68.5,54.1,83.8,54.1,102.1
			c0,15,10.9,29.2,31.4,33.1l24.6,4.7c3.1,0.6,5.7,1.2,7.8,2l37-1.5c-2.3-11.5-10.4-20.9-25.6-25.7c-0.1,0-0.1,0-0.2-0.1
			c-0.1,0-0.2-0.1-0.2-0.1c-0.1,0-0.2-0.1-0.2-0.1s-0.2,0-0.2-0.1c-0.1,0-0.2-0.1-0.3-0.1c-0.1,0-0.1,0-0.1,0
			c-0.2,0-0.3-0.1-0.4-0.1c0,0,0,0-0.1,0c-0.3-0.1-0.6-0.2-1-0.2c0,0,0,0-0.1,0c-0.1,0-0.3-0.1-0.4-0.1c0,0-0.1,0-0.1,0
			c-0.1-0.1-0.3-0.1-0.4-0.1c0,0,0,0-0.1,0c-0.7-0.2-1.4-0.3-2.1-0.5l-0.1,0c-0.2,0-0.3-0.1-0.5-0.1c0,0-0.1,0-0.1,0
			c-0.1,0-0.3-0.1-0.4-0.1c-0.1,0-0.1,0-0.2,0c-0.1,0-0.3-0.1-0.4-0.1c-0.1,0-0.1,0-0.1,0c-0.2-0.1-0.3-0.1-0.5-0.1l-23.5-4.4
			c-7.5-1.3-12.3-3.1-12.3-7.3c0-4,4.9-7.2,16.4-7.4c0.2,0,0.4,0,0.6,0c11.8,0,22.1,1.3,28.8,1.3c8.7,0,17.6-3.7,17.6-20.7l-0.7-6.6
			c-0.2,0-0.3,0-0.5-0.1c-9.2-1.1-23.4-2.6-37.7-2.6H109.4"/>
		<path class="st0" d="M237,124.6L237,124.6l8,12.1L237,124.6 M269.1,64.6c-14.3,0-22.2,5.3-30.5,14.3l-39.3,43l39.3-43
			C246.8,69.9,254.8,64.6,269.1,64.6c4.7,0,11,1.1,13.7,1.9l40.5,65.9l20.6-48.7c6.8-16.1,17.2-18.3,25.3-18.3c0.3,0,0.6,0,0.9,0
			c4.8,0.1,10.6,1.7,13.2,3.1l-28.5,63.6h0l28.5-63.6c-2.6-1.4-8.4-3-13.2-3.1c-0.3,0-0.6,0-0.9,0c-8.1,0-18.5,2.1-25.3,18.3
			l-20.6,48.7l-40.5-65.9C280.1,65.8,273.7,64.6,269.1,64.6"/>
		<path class="st5" d="M269.1,64.6c-14.3,0-22.2,5.3-30.5,14.3l-39.3,43l10.3,16.2l35.5-1.5l-8-12.1L264,96l24.8,39l65.9-2.7
			l28.5-63.6c-2.6-1.4-8.4-3-13.2-3.1c-0.3,0-0.6,0-0.9,0c-8.1,0-18.5,2.1-25.3,18.3l-20.6,48.7l-40.5-65.9
			C280.1,65.8,273.7,64.6,269.1,64.6"/>
		<path class="st5" d="M190,24.1c-20.7,0-24.2,11-24.2,21.6V140l31.9-1.3V24.9L190,24.1"/>
	</g>
</g>
</svg>
